<?xml version="1.0"?>
<svg xmlns="http://www.w3.org/2000/svg" xmlns:xlink="http://www.w3.org/1999/xlink" xmlns:svgjs="http://svgjs.com/svgjs" version="1.1" width="512" height="512" x="0" y="0" viewBox="0 0 510 510.13957" style="enable-background:new 0 0 512 512" xml:space="preserve" class=""><g><path xmlns="http://www.w3.org/2000/svg" d="m70.691406 501.3125v-379.585938c0-19.503906-15.808594-35.3125-35.3125-35.3125-19.5 0-35.3085935 15.808594-35.3085935 35.3125v379.585938c0 4.875 3.9531255 8.828125 8.8281255 8.828125h52.964843c4.875 0 8.828125-3.953125 8.828125-8.828125zm0 0" fill="#0abb87" data-original="#000000" style="" class=""/><path xmlns="http://www.w3.org/2000/svg" d="m88.34375 15.792969h52.96875c9.75 0 17.652344 7.90625 17.652344 17.65625v35.3125c0 9.75-7.902344 17.652343-17.652344 17.652343h-52.96875c-9.75 0-17.652344-7.902343-17.652344-17.652343v-35.3125c0-9.75 7.902344-17.65625 17.652344-17.65625zm0 0" fill="#0abb87" data-original="#000000" style="" class=""/><path xmlns="http://www.w3.org/2000/svg" d="m17.726562 51.105469c.027344 9.738281 7.914063 17.625 17.652344 17.65625h26.484375v-35.3125h-26.484375c-9.71875.070312-17.582031 7.933593-17.652344 17.65625zm0 0" fill="#0abb87" data-original="#000000" style="" class=""/><path xmlns="http://www.w3.org/2000/svg" d="m194.277344 33.449219h-26.484375v35.3125h26.484375c9.738281-.03125 17.625-7.917969 17.65625-17.65625-.070313-9.722657-7.933594-17.585938-17.65625-17.65625zm0 0" fill="#0abb87" data-original="#000000" style="" class=""/><path xmlns="http://www.w3.org/2000/svg" d="m305.25 9.980469 50.035156-9.65625c9.574219-1.847657 18.832032 4.417969 20.679688 13.992187l6.691406 34.671875c1.847656 9.570313-4.417969 18.832031-13.992188 20.679688l-50.03125 9.65625c-9.574218 1.847656-18.832031-4.417969-20.679687-13.992188l-6.691406-34.671875c-1.847657-9.574218 4.414062-18.832031 13.988281-20.679687zm0 0" fill="#0abb87" data-original="#000000" style="" class=""/><path xmlns="http://www.w3.org/2000/svg" d="m244.367188 45.015625c-2.671876 3.84375-3.664063 8.613281-2.753907 13.207031 1.875 9.554688 11.113281 15.808594 20.679688 13.988282l26.003906-5.015626-6.691406-34.671874-26.003907 5.019531c-4.601562.863281-8.65625 3.558593-11.234374 7.472656zm0 0" fill="#0abb87" data-original="#000000" style="" class=""/><path xmlns="http://www.w3.org/2000/svg" d="m418.3125 42.105469c9.554688-1.875 15.804688-11.113281 13.988281-20.679688-1.910156-9.535156-11.121093-15.765625-20.679687-13.992187l-26.003906 5.019531 6.691406 34.667969zm0 0" fill="#0abb87" data-original="#000000" style="" class=""/><path xmlns="http://www.w3.org/2000/svg" d="m307.824219 182.585938-6.242188 6.242187c-2.292969 2.21875-3.214843 5.5-2.40625 8.585937.808594 3.085938 3.21875 5.496094 6.304688 6.304688 3.085937.808594 6.367187-.113281 8.585937-2.40625l6.242188-6.242188c2.277344-2.21875 3.183594-5.492187 2.371094-8.570312-.808594-3.074219-3.210938-5.476562-6.285157-6.285156-3.078125-.8125-6.351562.09375-8.570312 2.371094zm0 0" fill="#0abb87" data-original="#000000" style="" class=""/><path xmlns="http://www.w3.org/2000/svg" d="m257.890625 232.523438-6.242187 6.242187c-2.277344 2.21875-3.183594 5.492187-2.375 8.566406.808593 3.078125 3.210937 5.480469 6.289062 6.289063 3.074219.8125 6.347656-.097656 8.566406-2.375l6.242188-6.242188c2.296875-2.214844 3.214844-5.496094 2.40625-8.582031-.804688-3.085937-3.21875-5.496094-6.304688-6.304687-3.085937-.808594-6.367187.113281-8.582031 2.40625zm0 0" fill="#0abb87" data-original="#000000" style="" class=""/><path xmlns="http://www.w3.org/2000/svg" d="m282.855469 228.867188c2.339843.003906 4.585937-.925782 6.238281-2.585938l6.242188-6.242188c2.289062-2.214843 3.203124-5.496093 2.394531-8.578124-.808594-3.078126-3.21875-5.484376-6.296875-6.296876-3.082032-.808593-6.359375.105469-8.578125 2.394532l-6.242188 6.242187c-2.523437 2.523438-3.28125 6.320313-1.914062 9.617188 1.367187 3.300781 4.585937 5.449219 8.15625 5.449219zm0 0" fill="#0abb87" data-original="#000000" style="" class=""/><path xmlns="http://www.w3.org/2000/svg" d="m282.859375 257.492188-6.242187 6.242187c-2.277344 2.222656-3.183594 5.496094-2.375 8.570313.8125 3.074218 3.210937 5.476562 6.289062 6.289062 3.074219.808594 6.347656-.097656 8.570312-2.375l6.238282-6.242188c3.347656-3.464843 3.296875-8.96875-.105469-12.375-3.40625-3.40625-8.910156-3.453124-12.375-.109374zm0 0" fill="#0abb87" data-original="#000000" style="" class=""/><path xmlns="http://www.w3.org/2000/svg" d="m307.824219 232.527344-6.242188 6.242187c-2.285156 2.21875-3.199219 5.496094-2.390625 8.578125.808594 3.082032 3.214844 5.488282 6.296875 6.296875 3.082031.808594 6.359375-.105469 8.578125-2.390625l6.242188-6.242187c2.285156-2.21875 3.199218-5.5 2.390625-8.578125-.808594-3.082032-3.214844-5.488282-6.296875-6.296875-3.082032-.808594-6.359375.105469-8.578125 2.390625zm0 0" fill="#0abb87" data-original="#000000" style="" class=""/><path xmlns="http://www.w3.org/2000/svg" d="m332.792969 207.558594-6.238281 6.242187c-2.296876 2.214844-3.21875 5.496094-2.410157 8.582031.808594 3.085938 3.21875 5.5 6.304688 6.304688 3.085937.808594 6.371093-.109375 8.585937-2.40625l6.242188-6.242188c3.371094-3.457031 3.335937-8.988281-.078125-12.402343-3.417969-3.417969-8.945313-3.453125-12.40625-.078125zm0 0" fill="#0abb87" data-original="#000000" style="" class=""/><path xmlns="http://www.w3.org/2000/svg" d="m462.28125 112.457031c-18.257812-6.847656-38.609375 2.398438-45.460938 20.65625l-29.761718 79.011719c-5.773438-32.363281-29.058594-58.835938-60.421875-68.6875s-65.605469-1.449219-88.847657 21.800781c-2.957031 3.003907-5.699218 6.210938-8.203124 9.601563v-53.113282c0-19.503906-15.808594-35.3125-35.308594-35.3125-19.503906 0-35.3125 15.808594-35.3125 35.3125v379.585938c.015625 4.867188 3.960937 8.8125 8.828125 8.828125h52.964843c4.871094-.015625 8.816407-3.960937 8.828126-8.828125v-220.839844c2.503906 3.390625 5.246093 6.597656 8.203124 9.601563 31.777344 31.804687 82.386719 34.613281 117.488282 6.527343l-75.828125 201.601563c-1.019531 2.710937-.644531 5.75 1.003906 8.132813 1.648437 2.382812 4.363281 3.804687 7.257813 3.804687h56.613281c3.679687 0 6.96875-2.28125 8.265625-5.722656l130.261718-346.410157c1.535157-4 2.3125-8.25 2.292969-12.535156-.019531-14.6875-9.121093-27.832031-22.863281-33.015625zm-112.136719 165.136719c-20.507812 20.519531-51.488281 26.398438-78.089843 14.816406 1.84375-3.867187.625-8.496094-2.878907-10.957031-3.507812-2.460937-8.273437-2.035156-11.285156 1.007813l-.945313.945312c-4.714843-3.570312-8.917968-7.773438-12.484374-12.488281l.941406-.941407c3.042968-3.011718 3.472656-7.78125 1.011718-11.285156-2.460937-3.507812-7.09375-4.722656-10.960937-2.882812-11.511719-26.496094-5.726563-57.335938 14.609375-77.855469 20.335938-20.523437 51.117188-26.589844 77.71875-15.324219l-1.234375 1.238282c-2.285156 2.21875-3.203125 5.496093-2.390625 8.578124.808594 3.078126 3.214844 5.488282 6.292969 6.296876 3.082031.808593 6.359375-.105469 8.578125-2.394532l4.4375-4.4375c4.71875 3.570313 8.921875 7.773438 12.488281 12.488282l-4.4375 4.4375c-2.285156 2.21875-3.199219 5.496093-2.390625 8.578124.808594 3.082032 3.214844 5.488282 6.296875 6.296876 3.082031.808593 6.359375-.105469 8.578125-2.390626l1.234375-1.238281c11.21875 26.5 5.25 57.15625-15.09375 77.507813zm0 0" fill="#0abb87" data-original="#000000" style="" class=""/></g></svg>
