<?xml version="1.0"?>
<svg xmlns="http://www.w3.org/2000/svg" xmlns:xlink="http://www.w3.org/1999/xlink" xmlns:svgjs="http://svgjs.com/svgjs" version="1.1" width="512" height="512" x="0" y="0" viewBox="0 0 510.115 510.115" style="enable-background:new 0 0 512 512" xml:space="preserve" class=""><g><g xmlns="http://www.w3.org/2000/svg"><path d="m435.368 74.748c-99.626-99.646-260.96-99.681-360.62 0-99.646 99.626-99.681 260.959 0 360.62 99.626 99.646 260.96 99.681 360.62 0 99.646-99.626 99.68-260.96 0-360.62zm-194.11 211.93c-1.548 29.817-26.446 53.65-56.56 53.65-30.944 0-56.64-25.008-56.64-56.64 0-8.28 6.72-15 15-15s15 6.72 15 15c0 14.849 12.036 26.64 26.65 26.64 14.265 0 25.867-11.289 26.59-25.2.807-15.32-11.362-28.08-26.6-28.08-12.449 0-15.643 2.096-21.52 4.55-10.867 5.627-23.654-3.572-21.62-15.8l10.13-61.17c1.2-7.24 7.46-12.55 14.8-12.55h51.15c8.29 0 15 6.72 15 15 0 8.29-6.71 15-15 15h-38.43l-4.2 25.38c41.901-3.875 67.954 26.609 66.25 59.22zm141.54 1.01c0 29.98-24.39 54.37-54.37 54.37s-54.37-24.39-54.37-54.37v-62.96c0-29.98 24.39-54.37 54.37-54.37s54.37 24.39 54.37 54.37zm-54.37-87.33c-13.44 0-24.37 10.93-24.37 24.37v62.96c0 13.44 10.93 24.37 24.37 24.37s24.37-10.93 24.37-24.37v-62.96c0-13.44-10.93-24.37-24.37-24.37z" fill="#5867dd" data-original="#000000" style="" class=""/></g></g></svg>
